<?xml version="1.0" encoding="us-ascii" standalone="no"?><svg xmlns="http://www.w3.org/2000/svg" xmlns:xlink="http://www.w3.org/1999/xlink" contentStyleType="text/css" height="453px" preserveAspectRatio="none" style="width:573px;height:453px;background:#FFFFFF;" version="1.1" viewBox="0 0 573 453" width="573px" zoomAndPan="magnify"><defs/><g><!--class User--><g id="elem_User"><rect codeLine="3" fill="#F1F1F1" height="149.3596" id="User" rx="2.5" ry="2.5" style="stroke:#181818;stroke-width:0.5;" width="193" x="7" y="27.5"/><ellipse cx="44.05" cy="43.5" fill="#ADD1B2" rx="11" ry="11" style="stroke:#181818;stroke-width:1.0;"/><path d="M48.1594,49.5 L40.4406,49.5 L40.4406,37.1094 L48.1594,37.1094 L48.1594,39.2656 L42.8938,39.2656 L42.8938,41.9375 L47.6594,41.9375 L47.6594,44.0938 L42.8938,44.0938 L42.8938,47.3438 L48.1594,47.3438 L48.1594,49.5 Z " fill="#000000"/><text fill="#000000" font-family="Noto Sans CJK JP" font-size="14" lengthAdjust="spacing" textLength="112" x="62.95" y="49.604">&#12518;&#12540;&#12470;&#12540;&#12510;&#12473;&#12479;&#12540;</text><line style="stroke:#181818;stroke-width:0.5;" x1="8" x2="199" y1="59.5" y2="59.5"/><ellipse cx="18" cy="75.136" fill="none" rx="3" ry="3" style="stroke:#038048;stroke-width:1.0;"/><text fill="#000000" font-family="Noto Sans CJK JP" font-size="14" lengthAdjust="spacing" textLength="105" x="27" y="79.7399">&#12518;&#12540;&#12470;&#12540;ID &#171;PK&#187;</text><ellipse cx="18" cy="95.4079" fill="none" rx="3" ry="3" style="stroke:#038048;stroke-width:1.0;"/><text fill="#000000" font-family="Noto Sans CJK JP" font-size="14" lengthAdjust="spacing" textLength="139" x="27" y="100.0118">&#12525;&#12464;&#12452;&#12531;&#21517; &#171;UNIQUE&#187;</text><ellipse cx="18" cy="115.6798" fill="none" rx="3" ry="3" style="stroke:#038048;stroke-width:1.0;"/><text fill="#000000" font-family="Noto Sans CJK JP" font-size="14" lengthAdjust="spacing" textLength="167" x="27" y="120.2838">&#12513;&#12540;&#12523;&#12450;&#12489;&#12524;&#12473; &#171;UNIQUE&#187;</text><ellipse cx="18" cy="135.9517" fill="none" rx="3" ry="3" style="stroke:#038048;stroke-width:1.0;"/><text fill="#000000" font-family="Noto Sans CJK JP" font-size="14" lengthAdjust="spacing" textLength="70" x="27" y="140.5557">&#12497;&#12473;&#12527;&#12540;&#12489;</text><ellipse cx="18" cy="156.2236" fill="none" rx="3" ry="3" style="stroke:#038048;stroke-width:1.0;"/><text fill="#000000" font-family="Noto Sans CJK JP" font-size="14" lengthAdjust="spacing" textLength="42" x="27" y="160.8276">&#30331;&#37682;&#26085;</text><line style="stroke:#181818;stroke-width:0.5;" x1="8" x2="199" y1="168.8596" y2="168.8596"/></g><!--class Region--><g id="elem_Region"><rect codeLine="11" fill="#F1F1F1" height="108.8157" id="Region" rx="2.5" ry="2.5" style="stroke:#181818;stroke-width:0.5;" width="159" x="407" y="47.5"/><ellipse cx="441.35" cy="63.5" fill="#ADD1B2" rx="11" ry="11" style="stroke:#181818;stroke-width:1.0;"/><path d="M445.4594,69.5 L437.7406,69.5 L437.7406,57.1094 L445.4594,57.1094 L445.4594,59.2656 L440.1938,59.2656 L440.1938,61.9375 L444.9594,61.9375 L444.9594,64.0938 L440.1938,64.0938 L440.1938,67.3438 L445.4594,67.3438 L445.4594,69.5 Z " fill="#000000"/><text fill="#000000" font-family="Noto Sans CJK JP" font-size="14" lengthAdjust="spacing" textLength="84" x="459.65" y="69.604">&#22320;&#22495;&#12510;&#12473;&#12479;&#12540;</text><line style="stroke:#181818;stroke-width:0.5;" x1="408" x2="565" y1="79.5" y2="79.5"/><ellipse cx="418" cy="95.136" fill="none" rx="3" ry="3" style="stroke:#038048;stroke-width:1.0;"/><text fill="#000000" font-family="Noto Sans CJK JP" font-size="14" lengthAdjust="spacing" textLength="77" x="427" y="99.7399">&#22320;&#22495;ID &#171;PK&#187;</text><ellipse cx="418" cy="115.4079" fill="none" rx="3" ry="3" style="stroke:#038048;stroke-width:1.0;"/><text fill="#000000" font-family="Noto Sans CJK JP" font-size="14" lengthAdjust="spacing" textLength="42" x="427" y="120.0118">&#22320;&#22495;&#21517;</text><ellipse cx="418" cy="135.6798" fill="none" rx="3" ry="3" style="stroke:#038048;stroke-width:1.0;"/><text fill="#000000" font-family="Noto Sans CJK JP" font-size="14" lengthAdjust="spacing" textLength="133" x="427" y="140.2838">ISO&#12467;&#12540;&#12489; &#171;UNIQUE&#187;</text><line style="stroke:#181818;stroke-width:0.5;" x1="408" x2="565" y1="148.3157" y2="148.3157"/></g><!--class Indicator--><g id="elem_Indicator"><rect codeLine="17" fill="#F1F1F1" height="189.9034" id="Indicator" rx="2.5" ry="2.5" style="stroke:#181818;stroke-width:0.5;" width="137" x="235" y="7"/><ellipse cx="259.45" cy="23" fill="#ADD1B2" rx="11" ry="11" style="stroke:#181818;stroke-width:1.0;"/><path d="M263.5594,29 L255.8406,29 L255.8406,16.6094 L263.5594,16.6094 L263.5594,18.7656 L258.2938,18.7656 L258.2938,21.4375 L263.0594,21.4375 L263.0594,23.5938 L258.2938,23.5938 L258.2938,26.8438 L263.5594,26.8438 L263.5594,29 Z " fill="#000000"/><text fill="#000000" font-family="Noto Sans CJK JP" font-size="14" lengthAdjust="spacing" textLength="84" x="275.55" y="29.104">&#25351;&#27161;&#12510;&#12473;&#12479;&#12540;</text><line style="stroke:#181818;stroke-width:0.5;" x1="236" x2="371" y1="39" y2="39"/><ellipse cx="246" cy="54.636" fill="none" rx="3" ry="3" style="stroke:#038048;stroke-width:1.0;"/><text fill="#000000" font-family="Noto Sans CJK JP" font-size="14" lengthAdjust="spacing" textLength="77" x="255" y="59.2399">&#25351;&#27161;ID &#171;PK&#187;</text><ellipse cx="246" cy="74.9079" fill="none" rx="3" ry="3" style="stroke:#038048;stroke-width:1.0;"/><text fill="#000000" font-family="Noto Sans CJK JP" font-size="14" lengthAdjust="spacing" textLength="42" x="255" y="79.5118">&#25351;&#27161;&#21517;</text><ellipse cx="246" cy="95.1798" fill="none" rx="3" ry="3" style="stroke:#038048;stroke-width:1.0;"/><text fill="#000000" font-family="Noto Sans CJK JP" font-size="14" lengthAdjust="spacing" textLength="28" x="255" y="99.7838">&#21336;&#20301;</text><ellipse cx="246" cy="115.4517" fill="none" rx="3" ry="3" style="stroke:#038048;stroke-width:1.0;"/><text fill="#000000" font-family="Noto Sans CJK JP" font-size="14" lengthAdjust="spacing" textLength="28" x="255" y="120.0557">&#35500;&#26126;</text><ellipse cx="246" cy="135.7236" fill="none" rx="3" ry="3" style="stroke:#038048;stroke-width:1.0;"/><text fill="#000000" font-family="Noto Sans CJK JP" font-size="14" lengthAdjust="spacing" textLength="98" x="255" y="140.3276">&#12487;&#12540;&#12479;&#12477;&#12540;&#12473;&#21517;</text><ellipse cx="246" cy="155.9955" fill="none" rx="3" ry="3" style="stroke:#038048;stroke-width:1.0;"/><text fill="#000000" font-family="Noto Sans CJK JP" font-size="14" lengthAdjust="spacing" textLength="111" x="255" y="160.5995">&#12487;&#12540;&#12479;&#12477;&#12540;&#12473;URL</text><ellipse cx="246" cy="176.2674" fill="none" rx="3" ry="3" style="stroke:#038048;stroke-width:1.0;"/><text fill="#000000" font-family="Noto Sans CJK JP" font-size="14" lengthAdjust="spacing" textLength="42" x="255" y="180.8714">&#21462;&#24471;&#26085;</text><line style="stroke:#181818;stroke-width:0.5;" x1="236" x2="371" y1="188.9034" y2="188.9034"/></g><!--class ClimateData--><g id="elem_ClimateData"><rect codeLine="27" fill="#F1F1F1" height="169.6315" id="ClimateData" rx="2.5" ry="2.5" style="stroke:#181818;stroke-width:0.5;" width="117" x="393" y="277"/><ellipse cx="414.75" cy="293" fill="#ADD1B2" rx="11" ry="11" style="stroke:#181818;stroke-width:1.0;"/><path d="M418.8594,299 L411.1406,299 L411.1406,286.6094 L418.8594,286.6094 L418.8594,288.7656 L413.5938,288.7656 L413.5938,291.4375 L418.3594,291.4375 L418.3594,293.5938 L413.5938,293.5938 L413.5938,296.8438 L418.8594,296.8438 L418.8594,299 Z " fill="#000000"/><text fill="#000000" font-family="Noto Sans CJK JP" font-size="14" lengthAdjust="spacing" textLength="70" x="430.25" y="299.104">&#27671;&#20505;&#12487;&#12540;&#12479;</text><line style="stroke:#181818;stroke-width:0.5;" x1="394" x2="509" y1="309" y2="309"/><ellipse cx="404" cy="324.636" fill="none" rx="3" ry="3" style="stroke:#038048;stroke-width:1.0;"/><text fill="#000000" font-family="Noto Sans CJK JP" font-size="14" lengthAdjust="spacing" textLength="91" x="413" y="329.2399">&#12487;&#12540;&#12479;ID &#171;PK&#187;</text><ellipse cx="404" cy="344.9079" fill="none" rx="3" ry="3" style="stroke:#038048;stroke-width:1.0;"/><text fill="#000000" font-family="Noto Sans CJK JP" font-size="14" lengthAdjust="spacing" textLength="76" x="413" y="349.5118">&#22320;&#22495;ID &#171;FK&#187;</text><ellipse cx="404" cy="365.1798" fill="none" rx="3" ry="3" style="stroke:#038048;stroke-width:1.0;"/><text fill="#000000" font-family="Noto Sans CJK JP" font-size="14" lengthAdjust="spacing" textLength="76" x="413" y="369.7838">&#25351;&#27161;ID &#171;FK&#187;</text><ellipse cx="404" cy="385.4517" fill="none" rx="3" ry="3" style="stroke:#038048;stroke-width:1.0;"/><text fill="#000000" font-family="Noto Sans CJK JP" font-size="14" lengthAdjust="spacing" textLength="14" x="413" y="390.0557">&#24180;</text><ellipse cx="404" cy="405.7236" fill="none" rx="3" ry="3" style="stroke:#038048;stroke-width:1.0;"/><text fill="#000000" font-family="Noto Sans CJK JP" font-size="14" lengthAdjust="spacing" textLength="14" x="413" y="410.3276">&#20516;</text><ellipse cx="404" cy="425.9955" fill="none" rx="3" ry="3" style="stroke:#038048;stroke-width:1.0;"/><text fill="#000000" font-family="Noto Sans CJK JP" font-size="14" lengthAdjust="spacing" textLength="42" x="413" y="430.5995">&#21462;&#24471;&#26085;</text><line style="stroke:#181818;stroke-width:0.5;" x1="394" x2="509" y1="438.6315" y2="438.6315"/></g><!--class Favorite--><g id="elem_Favorite"><rect codeLine="36" fill="#F1F1F1" height="149.3596" id="Favorite" rx="2.5" ry="2.5" style="stroke:#181818;stroke-width:0.5;" width="158" x="164.5" y="287.5"/><ellipse cx="179.5" cy="303.5" fill="#ADD1B2" rx="11" ry="11" style="stroke:#181818;stroke-width:1.0;"/><path d="M183.6094,309.5 L175.8906,309.5 L175.8906,297.1094 L183.6094,297.1094 L183.6094,299.2656 L178.3438,299.2656 L178.3438,301.9375 L183.1094,301.9375 L183.1094,304.0938 L178.3438,304.0938 L178.3438,307.3438 L183.6094,307.3438 L183.6094,309.5 Z " fill="#000000"/><text fill="#000000" font-family="Noto Sans CJK JP" font-size="14" lengthAdjust="spacing" textLength="126" x="193.5" y="309.604">&#12518;&#12540;&#12470;&#12540;&#12362;&#27671;&#12395;&#20837;&#12426;</text><line style="stroke:#181818;stroke-width:0.5;" x1="165.5" x2="321.5" y1="319.5" y2="319.5"/><ellipse cx="175.5" cy="335.136" fill="none" rx="3" ry="3" style="stroke:#038048;stroke-width:1.0;"/><text fill="#000000" font-family="Noto Sans CJK JP" font-size="14" lengthAdjust="spacing" textLength="119" x="184.5" y="339.7399">&#12362;&#27671;&#12395;&#20837;&#12426;ID &#171;PK&#187;</text><ellipse cx="175.5" cy="355.4079" fill="none" rx="3" ry="3" style="stroke:#038048;stroke-width:1.0;"/><text fill="#000000" font-family="Noto Sans CJK JP" font-size="14" lengthAdjust="spacing" textLength="104" x="184.5" y="360.0118">&#12518;&#12540;&#12470;&#12540;ID &#171;FK&#187;</text><ellipse cx="175.5" cy="375.6798" fill="none" rx="3" ry="3" style="stroke:#038048;stroke-width:1.0;"/><text fill="#000000" font-family="Noto Sans CJK JP" font-size="14" lengthAdjust="spacing" textLength="76" x="184.5" y="380.2838">&#22320;&#22495;ID &#171;FK&#187;</text><ellipse cx="175.5" cy="395.9517" fill="none" rx="3" ry="3" style="stroke:#038048;stroke-width:1.0;"/><text fill="#000000" font-family="Noto Sans CJK JP" font-size="14" lengthAdjust="spacing" textLength="76" x="184.5" y="400.5557">&#25351;&#27161;ID &#171;FK&#187;</text><ellipse cx="175.5" cy="416.2236" fill="none" rx="3" ry="3" style="stroke:#038048;stroke-width:1.0;"/><text fill="#000000" font-family="Noto Sans CJK JP" font-size="14" lengthAdjust="spacing" textLength="42" x="184.5" y="420.8276">&#30331;&#37682;&#26085;</text><line style="stroke:#181818;stroke-width:0.5;" x1="165.5" x2="321.5" y1="428.8596" y2="428.8596"/></g><!--link Region to ClimateData--><g id="link_Region_ClimateData"><path codeLine="44" d="M478.1343,164.6973 C473.4243,199.4073 470.6877,219.5131 465.3377,258.9831 " fill="none" id="Region-ClimateData" style="stroke:#181818;stroke-width:1.0;"/><line style="stroke:#181818;stroke-width:1.0;" x1="474.7085" x2="482.6358" y1="160.1958" y2="161.2715"/><line style="stroke:#181818;stroke-width:1.0;" x1="474.3051" x2="482.2324" y1="163.1686" y2="164.2443"/><line style="stroke:#181818;stroke-width:1.0;" x1="478.1343" x2="479.21" y1="164.6973" y2="156.77"/><line style="stroke:#181818;stroke-width:1.0;" x1="463.9945" x2="468.8656" y1="268.8925" y2="277.6259"/><line style="stroke:#181818;stroke-width:1.0;" x1="463.9945" x2="456.9744" y1="268.8925" y2="276.0141"/><line style="stroke:#181818;stroke-width:1.0;" x1="463.9945" x2="462.92" y1="268.8925" y2="276.82"/><ellipse cx="464.8004" cy="262.9469" fill="none" rx="4" ry="4" style="stroke:#181818;stroke-width:1.0;"/><text fill="#000000" font-family="Noto Sans CJK JP" font-size="13" lengthAdjust="spacing" textLength="39" x="469.5" y="243.08">&#22320;&#22495;ID</text></g><!--link Indicator to ClimateData--><g id="link_Indicator_ClimateData"><path codeLine="45" d="M306.7026,204.9279 C309.7626,222.2379 313.41,231.75 321.5,247 C337.96,278.03 352.1108,293.7223 378.2908,313.3223 " fill="none" id="Indicator-ClimateData" style="stroke:#181818;stroke-width:1.0;"/><line style="stroke:#181818;stroke-width:1.0;" x1="302.0674" x2="309.9452" y1="201.6852" y2="200.2926"/><line style="stroke:#181818;stroke-width:1.0;" x1="302.5896" x2="310.4675" y1="204.6394" y2="203.2468"/><line style="stroke:#181818;stroke-width:1.0;" x1="306.7026" x2="305.31" y1="204.9279" y2="197.05"/><line style="stroke:#181818;stroke-width:1.0;" x1="386.2959" x2="396.2959" y1="319.3155" y2="319.3069"/><line style="stroke:#181818;stroke-width:1.0;" x1="386.2959" x2="389.1041" y1="319.3155" y2="328.9131"/><line style="stroke:#181818;stroke-width:1.0;" x1="386.2959" x2="392.7" y1="319.3155" y2="324.11"/><ellipse cx="381.4928" cy="315.7196" fill="none" rx="4" ry="4" style="stroke:#181818;stroke-width:1.0;"/><text fill="#000000" font-family="Noto Sans CJK JP" font-size="13" lengthAdjust="spacing" textLength="39" x="322.5" y="243.08">&#25351;&#27161;ID</text></g><!--link User to Favorite--><g id="link_User_Favorite"><path codeLine="47" d="M132.8906,184.084 C142.1406,207.124 150.32,224.87 162.5,247 C169.94,260.51 168.5655,259.4237 177.4855,272.5737 " fill="none" id="User-Favorite" style="stroke:#181818;stroke-width:1.0;"/><line style="stroke:#181818;stroke-width:1.0;" x1="127.6883" x2="135.1123" y1="181.8623" y2="178.8817"/><line style="stroke:#181818;stroke-width:1.0;" x1="128.806" x2="136.23" y1="184.6463" y2="181.6657"/><line style="stroke:#181818;stroke-width:1.0;" x1="132.8906" x2="129.91" y1="184.084" y2="176.66"/><line style="stroke:#181818;stroke-width:1.0;" x1="183.0991" x2="192.5554" y1="280.8494" y2="284.1018"/><line style="stroke:#181818;stroke-width:1.0;" x1="183.0991" x2="182.6246" y1="280.8494" y2="290.8382"/><line style="stroke:#181818;stroke-width:1.0;" x1="183.0991" x2="187.59" y1="280.8494" y2="287.47"/><ellipse cx="179.7309" cy="275.884" fill="none" rx="4" ry="4" style="stroke:#181818;stroke-width:1.0;"/><text fill="#000000" font-family="Noto Sans CJK JP" font-size="13" lengthAdjust="spacing" textLength="65" x="163.5" y="243.08">&#12518;&#12540;&#12470;&#12540;ID</text></g><!--link Region to Favorite--><g id="link_Region_Favorite"><path codeLine="48" d="M439.4464,162.9461 C417.0964,190.6461 393.71,218.31 366.5,247 C352.77,261.47 350.6862,264.0114 335.7962,278.0514 " fill="none" id="Region-Favorite" style="stroke:#181818;stroke-width:1.0;"/><line style="stroke:#181818;stroke-width:1.0;" x1="438.8452" x2="445.0713" y1="157.3213" y2="162.3448"/><line style="stroke:#181818;stroke-width:1.0;" x1="436.9614" x2="443.1874" y1="159.656" y2="164.6796"/><line style="stroke:#181818;stroke-width:1.0;" x1="439.4464" x2="444.47" y1="162.9461" y2="156.72"/><line style="stroke:#181818;stroke-width:1.0;" x1="328.5205" x2="326.8162" y1="284.9117" y2="294.7654"/><line style="stroke:#181818;stroke-width:1.0;" x1="328.5205" x2="318.5838" y1="284.9117" y2="286.0346"/><line style="stroke:#181818;stroke-width:1.0;" x1="328.5205" x2="322.7" y1="284.9117" y2="290.4"/><ellipse cx="332.886" cy="280.7955" fill="none" rx="4" ry="4" style="stroke:#181818;stroke-width:1.0;"/><text fill="#000000" font-family="Noto Sans CJK JP" font-size="13" lengthAdjust="spacing" textLength="39" x="384.5" y="243.08">&#22320;&#22495;ID</text></g><!--link Indicator to Favorite--><g id="link_Indicator_Favorite"><path codeLine="49" d="M247.1827,204.5012 C243.2827,214.3812 242.89,217.02 240.5,227 C235.89,246.24 234.289,249.4742 234.719,269.2642 " fill="none" id="Indicator-Favorite" style="stroke:#181818;stroke-width:1.0;"/><line style="stroke:#181818;stroke-width:1.0;" x1="244.9307" x2="252.372" y1="199.312" y2="202.2493"/><line style="stroke:#181818;stroke-width:1.0;" x1="243.8292" x2="251.2705" y1="202.1024" y2="205.0398"/><line style="stroke:#181818;stroke-width:1.0;" x1="247.1827" x2="250.12" y1="204.5012" y2="197.06"/><line style="stroke:#181818;stroke-width:1.0;" x1="234.9362" x2="241.1086" y1="279.2619" y2="287.1297"/><line style="stroke:#181818;stroke-width:1.0;" x1="234.9362" x2="229.1114" y1="279.2619" y2="287.3903"/><line style="stroke:#181818;stroke-width:1.0;" x1="234.9362" x2="235.11" y1="279.2619" y2="287.26"/><ellipse cx="234.8059" cy="273.2633" fill="none" rx="4" ry="4" style="stroke:#181818;stroke-width:1.0;"/><text fill="#000000" font-family="Noto Sans CJK JP" font-size="13" lengthAdjust="spacing" textLength="39" x="241.5" y="243.08">&#25351;&#27161;ID</text></g><!--SRC=[bPBTIW915CVlzoa6RyCN4F56Mz32JDa767AB9TqDdOBGG6S9KRIFcrI8fD28D9ACGCfyc6ctUejsPrRTyUEYczspv_pt_7zpvcJt5VK0Pc0Q9ELTU9X2egQYA4pBm1FLa0OIKCs2O6G3H68UGP1LfA1Zu27wFT4_27wpd_eDmKE2nrRi0J0BfAoS0Ja1W3MtB1m2Vdzi8n1WXIU2-mItYJumBcfMHOg6jwNrIVMMzkqIV4VqCj5xbi62vj9srP-ficodlflllzKNizuHJcQandNVQBKM6EFodgAfZ999E3wMiiZiZt1YY-01yt5Jk5pCQibyQ2wuXDMaiWEHveo3gJWZbdACZ5hZQqIZdyUUsJXZvopH4Ou97j5Ww8WN2r9yatOvlp8-wtDZCFjrez2S_aFfWYab3P4SWWXEhiifBva5JOaSDPS2nl2LlGljbHJSsXGh5XGfTetJ3i4LIYJ28osZ8Dd1uHLp2pItMUA_QBbLSNOXd_TwjHmt5H-Oj1DcLxbKD_4G1BhzZcPw7X_WWUSyNRhLXYxHrEqF]--></g></svg>