<?xml version="1.0" encoding="UTF-8"?>
<svg version="1.1" xmlns="http://www.w3.org/2000/svg" width="478" height="478">
<path d="M0 0 C157.74 0 315.48 0 478 0 C478 157.74 478 315.48 478 478 C320.26 478 162.52 478 0 478 C0 320.26 0 162.52 0 0 Z " fill="#072640" transform="translate(0,0)"/>
<path d="M0 0 C157.74 0 315.48 0 478 0 C478 157.74 478 315.48 478 478 C320.26 478 162.52 478 0 478 C0 320.26 0 162.52 0 0 Z M91 93 C90.14664063 93.80050781 89.29328125 94.60101563 88.4140625 95.42578125 C81.52955466 102.06053565 75.68623202 109.33964777 70 117 C69.59894043 117.54027832 69.19788086 118.08055664 68.78466797 118.63720703 C62.40719365 127.32695068 57.00544173 136.46797649 52 146 C51.65582031 146.65419922 51.31164062 147.30839844 50.95703125 147.98242188 C38.54853471 171.96742765 30.04648413 200.20058471 29.76171875 227.328125 C29.75183426 228.10648209 29.74194977 228.88483917 29.73176575 229.68678284 C29.11002234 291.54622417 49.19039921 345.39006036 92.625 389.875 C124.6657488 421.17599125 166.20179439 439.67024839 210 447 C210.75716309 447.13132324 211.51432617 447.26264648 212.29443359 447.39794922 C258.33484253 455.17497162 312.80386865 443.06046035 351.47265625 416.80078125 C352.30667969 416.20652344 353.14070313 415.61226563 354 415 C355.12329459 414.22207354 356.24702418 413.44477497 357.37109375 412.66796875 C360.95746282 410.16982349 364.48775209 407.60104159 368 405 C368.86882812 404.360625 369.73765625 403.72125 370.6328125 403.0625 C414.28768918 369.12391249 440.47772022 318.17123787 448 264 C448.185625 262.81921875 448.37125 261.6384375 448.5625 260.421875 C449.33718189 254.04492993 449.19868597 247.6014569 449.1875 241.1875 C449.18656342 240.49681427 449.18562683 239.80612854 449.18466187 239.09451294 C449.01852493 182.5122018 426.27170584 132.2628744 387 92 C353.82571547 59.15095355 309.70642534 40.61102302 264 34 C263.03549927 33.8596936 263.03549927 33.8596936 262.05151367 33.71655273 C199.28543146 25.60333373 136.14938089 49.9028637 91 93 Z " fill="#FEFCF4" transform="translate(0,0)"/>
<path d="M0 0 C0.83466797 0.16628906 1.66933594 0.33257812 2.52929688 0.50390625 C33.1061368 6.67873556 61.87451904 20.22971275 86 40 C86.57105469 40.46277344 87.14210938 40.92554688 87.73046875 41.40234375 C107.30868484 57.35016215 122.44082616 76.53901853 134 99 C134.60199219 100.15113281 135.20398438 101.30226563 135.82421875 102.48828125 C144.6287764 120.27546627 150.1142941 139.40709886 153 159 C153.22623047 160.52560547 153.22623047 160.52560547 153.45703125 162.08203125 C154.48191218 170.97799774 154.08338333 180.05945378 154 189 C150.64201346 187.74149016 147.71011759 186.29701971 144.6875 184.375 C115.51318041 166.68051623 82.85310822 159.28668432 49 158 C48.97421875 156.88625 48.9484375 155.7725 48.921875 154.625 C48.10760005 129.79098495 39.98990273 107.77524096 21.65625 90.2578125 C3.23117199 74.59649619 -18.86977305 67.62533804 -43 69 C-67.95869837 71.0823016 -87.30100555 83.04591147 -103.265625 101.78125 C-113.16091005 114.44008312 -118.46219499 130.36666473 -119.54296875 146.2734375 C-119.62957764 147.53333496 -119.71618652 148.79323242 -119.80541992 150.09130859 C-119.90173706 151.53111084 -119.90173706 151.53111084 -120 153 C-120.71728271 153.03440186 -121.43456543 153.06880371 -122.17358398 153.10424805 C-156.65249739 154.87134373 -188.30632161 162.44989818 -219.484375 177.3828125 C-223 179 -223 179 -225 179 C-226.74738354 150.77004814 -217.61356935 121.51783722 -204 97 C-203.35634125 95.8023141 -202.71310997 94.60439837 -202.0703125 93.40625 C-178.91111802 50.9272733 -138.4578708 19.0346004 -92.36621094 4.68798828 C-84.34520583 2.35583884 -76.19412875 0.60045325 -68 -1 C-66.73542969 -1.24878906 -65.47085938 -1.49757812 -64.16796875 -1.75390625 C-43.45854939 -5.01900765 -20.471797 -4.32239105 0 0 Z " fill="#FDB644" transform="translate(275,56)"/>
<path d="M0 0 C1.65612305 0.00676758 1.65612305 0.00676758 3.34570312 0.01367188 C6.043027 0.0253486 8.74023347 0.04172475 11.4375 0.0625 C7.59495054 4.25504912 3.5664684 6.99807127 -1.3125 9.875 C-12.84260865 16.94167199 -21.1172634 23.66996915 -25.19921875 37.16796875 C-26.86435504 45.85174401 -24.84030435 53.89639532 -20.125 61.328125 C-12.99855749 70.30470162 -2.53909303 73.69893842 8.06762695 76.88330078 C12.82913959 78.34814134 16.4231435 80.10198823 20.4375 83.0625 C21.05625 83.475 21.675 83.8875 22.3125 84.3125 C24.30506676 87.41204829 23.9608323 90.56443672 23.4375 94.0625 C22.80262639 96.09354587 22.13264334 98.11378456 21.4375 100.125 C17.79014401 111.3666722 18.09885914 122.46419225 23.4375 133.0625 C27.58629706 140.87642607 32.50960568 146.57988068 39.4375 152.0625 C26.46025346 166.33747119 5.27159699 176.42418534 -12.5625 183.0625 C-13.2225 183.0625 -13.8825 183.0625 -14.5625 183.0625 C-14.3459375 182.19109375 -14.129375 181.3196875 -13.90625 180.421875 C-11.37248536 169.58299293 -9.14204333 159.49432193 -14.8828125 149.375 C-18.36963021 144.57454399 -22.85231231 140.89514928 -27.74609375 137.5859375 C-36.09602991 131.93513004 -38.30408985 124.63102871 -40.4375 115.0625 C-42.37441103 106.49104306 -45.88405445 99.7309469 -52.875 94.125 C-61.74578329 88.61495399 -72.36113549 87.60650848 -82.5625 89.0625 C-97.4389336 92.54362715 -112.43458761 101.03947851 -122.0703125 112.921875 C-125.77644831 118.98646087 -125.42336138 126.22755749 -124.5625 133.0625 C-122.57838901 139.83612483 -119.309954 145.92873246 -115.48046875 151.83203125 C-113.94062248 155.57353006 -113.88930919 159.09841173 -115.20825195 162.9465332 C-116.10666949 164.94912251 -117.08871959 166.87773239 -118.125 168.8125 C-118.66157227 169.84987305 -118.66157227 169.84987305 -119.20898438 170.90820312 C-122.32843235 176.84450711 -125.79867013 182.51085095 -129.5625 188.0625 C-135.92246385 187.52091505 -141.31143443 185.99123938 -147.25 183.6875 C-148.1577417 183.3366333 -149.0654834 182.9857666 -150.00073242 182.62426758 C-166.40538245 176.09659275 -181.33489942 167.4665587 -195.5625 157.0625 C-191.91831239 152.96035298 -187.51346695 150.3093834 -182.9375 147.375 C-167.55933518 137.31094112 -155.22104422 126.64679191 -151.14453125 108.1171875 C-150.12115893 102.03983358 -150.10060805 95.81566594 -150.02856445 89.66552734 C-149.82826854 80.42575417 -149.82826854 80.42575417 -146.5625 77.0625 C-139.63563393 72.53104048 -132.18956196 70.79419768 -124.1875 69.125 C-106.33239833 65.08186897 -94.15567888 58.4016661 -83.4296875 43.0234375 C-81.45833334 39.89731521 -79.71638107 36.71006657 -78 33.4375 C-69.92750757 18.12697504 -59.13078899 10.96544777 -42.81591797 5.72363281 C-28.6859589 1.57802835 -14.68534755 -0.11507506 0 0 Z " fill="#2D9CC3" transform="translate(320.5625,233.9375)"/>
<path d="M0 0 C16.15409548 3.47485469 31.49964626 9.21740298 45.94140625 17.19921875 C47.04226563 17.79863281 48.143125 18.39804688 49.27734375 19.015625 C55.60467778 22.57773874 61.35724391 26.55985155 66.94140625 31.19921875 C65.18315035 49.57119874 58.95552027 67.66786248 50.94140625 84.19921875 C50.38710938 85.38515625 49.8328125 86.57109375 49.26171875 87.79296875 C40.33243709 106.39220981 28.07415459 122.28728847 13.94140625 137.19921875 C6.5804643 132.51687063 0.34902649 126.83832666 -2.05859375 118.19921875 C-2.93340867 110.06343999 -1.77978586 103.71714977 1.0390625 96.11328125 C3.38663609 88.5319397 2.47749919 81.20936792 -1.05859375 74.19921875 C-1.55359375 73.18859375 -2.04859375 72.17796875 -2.55859375 71.13671875 C-10.06082753 62.32159406 -20.92563961 59.12666847 -31.55371094 55.4831543 C-44.12358491 51.06923642 -44.12358491 51.06923642 -47.05859375 45.19921875 C-47.59862553 40.77272878 -47.4904578 37.18072796 -45.68359375 33.07421875 C-40.97601471 27.91829885 -35.15264129 24.47323446 -29.234375 20.84765625 C-15.67808037 12.61446957 -15.67808037 12.61446957 -4.0390625 1.921875 C-2.05859375 0.19921875 -2.05859375 0.19921875 0 0 Z " fill="#60B74E" transform="translate(360.05859375,236.80078125)"/>
<path d="M0 0 C13.95841941 10.69114395 23.70097019 26.51080256 26.1953125 44.03515625 C26.48719687 49.03783264 26.37996278 54.02908187 26.1953125 59.03515625 C25.05578125 59.18210937 23.91625 59.3290625 22.7421875 59.48046875 C6.40792456 61.73569587 -9.08763584 65.82239366 -23.95703125 73.03125 C-29.91357348 75.13115583 -35.10303673 71.69809186 -40.5546875 69.28515625 C-61.11401218 60.45657821 -82.6279117 56.41908123 -104.8046875 54.03515625 C-104.18784751 33.74112047 -97.80192358 17.20754435 -82.8046875 3.03515625 C-76.42818654 -2.25444114 -69.50584472 -5.96994928 -61.8046875 -8.96484375 C-61.02351563 -9.28582031 -60.24234375 -9.60679687 -59.4375 -9.9375 C-39.68600463 -16.72116055 -16.63815054 -11.65597454 0 0 Z " fill="#FDB544" transform="translate(278.8046875,155.96484375)"/>
<path d="M0 0 C27.64127084 -0.7749889 57.90287978 2.67959553 83 15 C80.51078017 20.1175932 77.56793053 24.97091516 74.6875 29.875 C74.11837891 30.85597656 73.54925781 31.83695312 72.96289062 32.84765625 C66.70566225 43.49428364 60.07532683 51.60358559 47.8359375 55.296875 C44.75525586 56.06068037 41.66149481 56.7201628 38.5559082 57.3737793 C26.90181784 59.84010725 14.97921905 62.4138549 7 72 C2.98430832 78.41506746 0.92703783 84.33503908 0.82421875 91.9140625 C0.51224055 105.68326233 0.13309469 116.7881689 -10 127 C-12.60056496 129.16708138 -15.32838163 131.09524026 -18.125 133 C-18.86693604 133.51328857 -19.60887207 134.02657715 -20.37329102 134.55541992 C-33.28916685 143.40051707 -33.28916685 143.40051707 -39 146 C-41 145 -41 145 -41.61010742 143.27026367 C-42.40239992 138.65690865 -42.27033375 133.98170917 -42.3125 129.3125 C-42.34150391 128.26126953 -42.37050781 127.21003906 -42.40039062 126.12695312 C-42.45696884 119.13301475 -41.42713887 114.09927945 -38 108 C-37.26136719 106.63875 -37.26136719 106.63875 -36.5078125 105.25 C-36.05148438 104.5075 -35.59515625 103.765 -35.125 103 C-34.61710937 102.17113281 -34.10921875 101.34226562 -33.5859375 100.48828125 C-31.56074064 97.31081721 -29.45331559 94.19520756 -27.296875 91.10546875 C-23.84441787 85.5004254 -23.21465837 80.46036985 -24 74 C-25.28424737 69.76561835 -27.03941765 65.82544831 -29.09765625 61.9140625 C-30.62921452 58.66530253 -30.53256566 56.55043775 -30 53 C-26.47932398 47.41092682 -21.32954811 43.627404 -16.13671875 39.6953125 C-3.64120554 29.78113932 -1.91538201 14.88703413 0 0 Z " fill="#60B74D" transform="translate(152,229)"/>
<path d="M0 0 C0.54554081 8.31949738 -0.93503695 15.68562526 -5.83984375 22.58984375 C-8.01128584 25.01259197 -10.2109631 26.86646846 -12.8125 28.8125 C-21.30248013 35.50195415 -27.71008315 42.46261222 -29.37890625 53.5078125 C-29.7245931 60.62227086 -27.46773124 66.83038515 -23.8671875 72.9140625 C-22.62288075 75.90712469 -22.54658633 77.77090612 -23 81 C-24.46469078 83.61077587 -26.30528025 85.8668069 -28.1875 88.1875 C-37.59418977 100.39474627 -40.919305 111.78495194 -42 127 C-45.47701752 123.78554902 -48.0969875 120.18430892 -50.6875 116.25 C-51.12175293 115.5909668 -51.55600586 114.93193359 -52.00341797 114.25292969 C-60.55203965 101.11792434 -67.35303208 87.62115501 -73 73 C-73.37898438 72.02812744 -73.37898438 72.02812744 -73.765625 71.03662109 C-76.75312447 63.22970408 -78.69802406 55.37067707 -80.3125 47.1875 C-80.48426758 46.32785645 -80.65603516 45.46821289 -80.83300781 44.58251953 C-81.92175709 38.67167926 -82.19469594 33.00352539 -82 27 C-57.48463999 14.03008889 -28.39165111 0 0 0 Z " fill="#60B74D" transform="translate(133,230)"/>
<path d="M0 0 C5.46206914 4.59415561 6.87787079 9.61682405 8.40625 16.42578125 C11.89198641 30.95159848 17.9883788 39.05024698 30.45703125 47.22265625 C32.59375 48.80078125 32.59375 48.80078125 34.59375 51.80078125 C35.5579554 58.53900738 34.57200311 64.06680904 31.56640625 70.12109375 C30.18140433 73.93680184 29.92146086 77.77305611 29.59375 81.80078125 C25.92764626 82.44983677 22.26077205 83.09443594 18.59375 83.73828125 C17.04880859 84.01188477 17.04880859 84.01188477 15.47265625 84.29101562 C4.86159132 86.14964165 -5.12262021 86.99362961 -15.90625 86.98828125 C-16.90304779 86.9893689 -16.90304779 86.9893689 -17.91998291 86.99047852 C-27.88206791 86.98927562 -37.58592261 86.55777273 -47.40625 84.80078125 C-45.93236696 80.69062287 -43.89571553 77.2759722 -41.53125 73.61328125 C-35.5075456 64.08107138 -31.02022385 54.26699756 -32.40625 42.80078125 C-34.32289357 36.52212128 -37.22218179 30.95716943 -40.71875 25.42578125 C-42.38144573 22.70382244 -43.43037103 20.71291179 -44.28125 17.61328125 C-42.36859538 11.46546283 -36.8498305 8.51027418 -31.41796875 5.61328125 C-10.39423005 -5.18024128 -10.39423005 -5.18024128 0 0 Z " fill="#60B74D" transform="translate(256.40625,342.19921875)"/>
<path d="M0 0 C3.4375 1.9375 3.4375 1.9375 6 5 C6.80145485 8.16574667 6.95943376 10.86978037 6 14 C2.55221057 17.95946023 -0.5373328 19.98720373 -5.40234375 21.89453125 C-6.62244141 22.37470703 -7.84253906 22.85488281 -9.09960938 23.34960938 C-9.73020264 23.5896167 -10.3607959 23.82962402 -11.01049805 24.0769043 C-12.93555764 24.81175854 -14.84955808 25.57113605 -16.76367188 26.33398438 C-27.36012683 30.44395503 -27.36012683 30.44395503 -33 30 C-35.80915461 28.72311154 -37.50106764 27.68900183 -39.3125 25.1875 C-40.24084633 22.23367076 -40.37765935 20.084218 -40 17 C-37.14243804 12.59011829 -34.31694984 10.87893448 -29.51171875 8.88671875 C-28.89029495 8.62744095 -28.26887115 8.36816315 -27.62861633 8.10102844 C-26.3194807 7.55900687 -25.00739974 7.02405034 -23.69262695 6.49584961 C-21.69579187 5.6908428 -19.71227774 4.85811128 -17.72851562 4.02148438 C-16.44861488 3.495693 -15.16803582 2.97154916 -13.88671875 2.44921875 C-12.73389404 1.97830811 -11.58106934 1.50739746 -10.39331055 1.0222168 C-6.70110319 -0.09004108 -3.83523056 -0.32014896 0 0 Z " fill="#092541" transform="translate(372,148)"/>
<path d="M0 0 C4.28753714 1.61835683 8.450685 3.48638881 12.625 5.375 C13.74390625 5.87 14.8628125 6.365 16.015625 6.875 C29.4311876 12.86237519 29.4311876 12.86237519 31 16 C31.51968957 20.4131016 31.85380637 23.86159151 29.125 27.5 C25.25168264 30.23410638 22.75762714 30.27439567 18 30 C14.80615234 28.96191406 14.80615234 28.96191406 11.5859375 27.515625 C10.41289063 26.99226563 9.23984375 26.46890625 8.03125 25.9296875 C7.43054688 25.65350586 6.82984375 25.37732422 6.2109375 25.09277344 C4.37904986 24.25185906 2.53841555 23.43318038 0.6953125 22.6171875 C-9.6106824 17.96359949 -9.6106824 17.96359949 -14 14 C-14.93710383 10.91858211 -14.71348453 8.12706891 -14 5 C-9.67549037 -0.46253849 -6.62119994 -1.72270397 0 0 Z " fill="#092541" transform="translate(115,148)"/>
<path d="M0 0 C5.28460673 2.27107066 7.48588153 6.28342708 10.375 11 C11.33561517 12.5392637 12.29655294 14.07832613 13.2578125 15.6171875 C13.72219727 16.36709961 14.18658203 17.11701172 14.66503906 17.88964844 C15.83395506 19.73751053 17.04384305 21.53458152 18.3046875 23.3203125 C22.93525925 29.99651835 22.93525925 29.99651835 23.25 34.875 C21.70248265 38.74379336 20.42616269 40.59439641 17 43 C12.96719928 43.92876623 10.18498633 43.72426677 6.62890625 41.55078125 C2.97772121 38.00810096 0.56321108 33.95824897 -2.0625 29.625 C-3.0944612 27.95015661 -4.12700067 26.27566938 -5.16015625 24.6015625 C-5.64436035 23.8077417 -6.12856445 23.0139209 -6.62744141 22.19604492 C-7.81169966 20.30127385 -9.051373 18.47657729 -10.33984375 16.65234375 C-12.8502767 12.64155793 -12.592036 10.66228349 -12 6 C-8.61619562 0.69870647 -6.21952213 -0.48780566 0 0 Z " fill="#082541" transform="translate(164,87)"/>
<path d="M0 0 C4.4457989 0.1670157 6.14469103 0.49590857 9.68359375 3.45703125 C11.9724603 7.51792351 12.11257259 9.28989937 11.62109375 13.89453125 C10.41491415 16.6832127 8.81609094 19.1296313 7.12109375 21.64453125 C6.67056641 22.33756348 6.22003906 23.0305957 5.75585938 23.74462891 C-3.80898779 38.32461279 -3.80898779 38.32461279 -8.37890625 42.89453125 C-11.43747188 43.46538338 -14.31375069 43.40274357 -17.37890625 42.89453125 C-20.81002622 40.53563627 -22.04379532 38.8262133 -23.4453125 34.9296875 C-24.14922716 28.95425158 -19.53023784 24.03838411 -16.31640625 19.39453125 C-15.3119043 17.88439453 -15.3119043 17.88439453 -14.28710938 16.34375 C-4.40165392 1.65513752 -4.40165392 1.65513752 0 0 Z " fill="#092542" transform="translate(315.37890625,87.10546875)"/>
<path d="M0 0 C0.77085937 0.04382813 1.54171875 0.08765625 2.3359375 0.1328125 C5.92811552 1.29751186 6.82016334 2.52607058 8.625 5.875 C9.1400777 9.96879463 9.04513415 14.00619994 8.9375 18.125 C8.92783203 19.21941406 8.91816406 20.31382813 8.90820312 21.44140625 C8.6822852 37.84501242 8.6822852 37.84501242 6.0625 42.875 C2.73417016 45.6059373 -0.10890401 46.17184565 -4.375 45.875 C-7.23112128 44.69529773 -8.76128027 43.77401287 -10.50048828 41.22631836 C-11.71409054 37.96328001 -11.59042218 34.86871909 -11.4921875 31.44140625 C-11.47664825 30.72645493 -11.46110901 30.0115036 -11.44509888 29.27488708 C-11.40836925 27.7660401 -11.36599924 26.25732122 -11.31835938 24.7487793 C-11.25033983 22.44898993 -11.21414464 20.15011561 -11.1796875 17.84960938 C-11.13996682 16.38015444 -11.09836214 14.91074898 -11.0546875 13.44140625 C-11.04718475 12.75792618 -11.03968201 12.07444611 -11.0319519 11.37025452 C-10.84113944 6.65063786 -9.69577688 4.20706674 -6.375 0.875 C-3.96572489 -0.32963755 -2.66888466 -0.20393471 0 0 Z " fill="#092541" transform="translate(240.375,68.125)"/>
<path d="M0 0 C0.33 0 0.66 0 1 0 C1 4.95 1 9.9 1 15 C-3.54148619 15.33596199 -8.08316106 15.66887086 -12.625 16 C-13.91019531 16.09539062 -15.19539063 16.19078125 -16.51953125 16.2890625 C-17.76347656 16.37929687 -19.00742188 16.46953125 -20.2890625 16.5625 C-22.00150146 16.68818359 -22.00150146 16.68818359 -23.74853516 16.81640625 C-26.84091568 16.99101731 -29.90353537 17.03281022 -33 17 C-29.89312446 14.92874964 -28.7324746 14.67289112 -25.140625 14.3671875 C-23.71363281 14.24150391 -23.71363281 14.24150391 -22.2578125 14.11328125 C-21.26523438 14.03464844 -20.27265625 13.95601562 -19.25 13.875 C-17.78433594 13.74544922 -17.78433594 13.74544922 -16.2890625 13.61328125 C-11.17415427 13.17899659 -6.13265296 12.89964086 -1 13 C-1.020625 11.783125 -1.04125 10.56625 -1.0625 9.3125 C-1.06824116 6.08022678 -0.78766315 3.15065259 0 0 Z " fill="#F1C743" transform="translate(154,194)"/>
<path d="M0 0 C1.14118479 3.42355438 0.87435271 4.03193215 -0.36328125 7.2734375 C-0.67330078 8.0984375 -0.98332031 8.9234375 -1.30273438 9.7734375 C-1.63595703 10.63195312 -1.96917969 11.49046875 -2.3125 12.375 C-2.63412109 13.22578125 -2.95574219 14.0765625 -3.28710938 14.953125 C-4.81648732 18.9854069 -6.37989813 23.00320047 -8 27 C-8.33 27 -8.66 27 -9 27 C-9.24353601 22.43369982 -8.60192564 19.35433268 -6.75 15.1875 C-6.29753906 14.15496094 -5.84507813 13.12242187 -5.37890625 12.05859375 C-4.92386719 11.04925781 -4.46882813 10.03992188 -4 9 C-3.59652344 8.08347656 -3.19304688 7.16695312 -2.77734375 6.22265625 C-1.8611342 4.14394426 -0.93568202 2.07000044 0 0 Z " fill="#0C113F" transform="translate(64,164)"/>
<path d="M0 0 C3.63 0 7.26 0 11 0 C11 0.66 11 1.32 11 2 C12.65 2 14.3 2 16 2 C16 2.33 16 2.66 16 3 C10.39 3 4.78 3 -1 3 C-0.67 2.01 -0.34 1.02 0 0 Z " fill="#163248" transform="translate(223,33)"/>
<path d="M0 0 C0 0.99 0 1.98 0 3 C-0.99 3.495 -0.99 3.495 -2 4 C-1.34 2.68 -0.68 1.36 0 0 Z M-3 4 C-3 4.99 -3 5.98 -3 7 C-3.99 7.66 -4.98 8.32 -6 9 C-4.125 5.125 -4.125 5.125 -3 4 Z M-8 10 C-7.67 10.99 -7.34 11.98 -7 13 C-8.65 14.32 -10.3 15.64 -12 17 C-12.66 16.67 -13.32 16.34 -14 16 C-12.02 14.02 -10.04 12.04 -8 10 Z " fill="#EDEFEE" transform="translate(405,367)"/>
<path d="M0 0 C0.66 0.33 1.32 0.66 2 1 C1.74297526 5.3694206 1.39976667 7.51822991 -1.4375 10.9375 C-4 13 -4 13 -6 13 C-5.67 11.68 -5.34 10.36 -5 9 C-3.68 9 -2.36 9 -1 9 C-0.67 6.03 -0.34 3.06 0 0 Z " fill="#222542" transform="translate(185,117)"/>
<path d="M0 0 C0.33 0.66 0.66 1.32 1 2 C-1.3125 4.5 -1.3125 4.5 -4 7 C-4.99 7 -5.98 7 -7 7 C-4.69 4.69 -2.38 2.38 0 0 Z M-9 8 C-8.34 8.33 -7.68 8.66 -7 9 C-7.99 9.99 -8.98 10.98 -10 12 C-10.66 11.67 -11.32 11.34 -12 11 C-11.01 10.01 -10.02 9.02 -9 8 Z M-14 12 C-12 13 -12 13 -12 13 Z " fill="#F0F2F2" transform="translate(383,391)"/>
<path d="M0 0 C0.66 0.33 1.32 0.66 2 1 C-0.31 3.64 -2.62 6.28 -5 9 C-6.32 8.67 -7.64 8.34 -9 8 C-6.03 5.36 -3.06 2.72 0 0 Z " fill="#08192B" transform="translate(109,77)"/>
<path d="M0 0 C0.66 0.33 1.32 0.66 2 1 C-2.75 4 -2.75 4 -5 4 C-5 4.66 -5 5.32 -5 6 C-5.99 6.66 -6.98 7.32 -8 8 C-8.66 8.99 -9.32 9.98 -10 11 C-10 9.02 -10 7.04 -10 5 C-8.38007835 4.13624104 -6.75388139 3.28424146 -5.125 2.4375 C-4.22007813 1.96183594 -3.31515625 1.48617187 -2.3828125 0.99609375 C-1.20332031 0.50302734 -1.20332031 0.50302734 0 0 Z " fill="#6FD24F" transform="translate(61,252)"/>
<path d="M0 0 C1.98 0.99 1.98 0.99 4 2 C3.34 5.63 2.68 9.26 2 13 C1.67 13 1.34 13 1 13 C1.020625 11.96875 1.04125 10.9375 1.0625 9.875 C1.00723339 6.44847031 0.65449285 3.35427586 0 0 Z " fill="#70D04F" transform="translate(423,266)"/>
<path d="M0 0 C0.33 0.99 0.66 1.98 1 3 C1.763125 2.649375 2.52625 2.29875 3.3125 1.9375 C6 1 6 1 9 2 C7.5437455 2.67119549 6.08492133 3.33681807 4.625 4 C3.40683594 4.556875 3.40683594 4.556875 2.1640625 5.125 C0 6 0 6 -2 6 C-1.34 4.02 -0.68 2.04 0 0 Z " fill="#30ABD5" transform="translate(308,411)"/>
<path d="M0 0 C0.33 0 0.66 0 1 0 C1 4.29 1 8.58 1 13 C0.01 12.01 -0.98 11.02 -2 10 C-1.85546875 7.51953125 -1.85546875 7.51953125 -1.1875 4.8125 C-0.97480469 3.91144531 -0.76210937 3.01039063 -0.54296875 2.08203125 C-0.36378906 1.39496094 -0.18460937 0.70789063 0 0 Z " fill="#6CCC4F" transform="translate(90,344)"/>
<path d="M0 0 C2 2 2 2 2 5 C3.65 5.33 5.3 5.66 7 6 C7 6.33 7 6.66 7 7 C4.69 7 2.38 7 0 7 C0 4.69 0 2.38 0 0 Z " fill="#EDBE42" transform="translate(174,203)"/>
<path d="M0 0 C-1.625 1.5625 -1.625 1.5625 -4 3 C-7.25 2.6875 -7.25 2.6875 -10 2 C-6.5980513 -0.09350689 -3.94727588 -0.17942163 0 0 Z " fill="#05143E" transform="translate(123,212)"/>
</svg>
