<?xml version="1.0" encoding="us-ascii" standalone="no"?><svg xmlns="http://www.w3.org/2000/svg" xmlns:xlink="http://www.w3.org/1999/xlink" contentStyleType="text/css" height="571px" preserveAspectRatio="none" style="width:1782px;height:571px;background:#FFFFFF;" version="1.1" viewBox="0 0 1782 571" width="1782px" zoomAndPan="magnify"><defs/><g><!--cluster Render--><g id="cluster_Render"><path d="M978.5,62.5 L1029.5,62.5 A3.75,3.75 0 0 1 1032,65 L1039,88.7719 L1146.5,88.7719 A2.5,2.5 0 0 1 1149,91.2719 L1149,165 A2.5,2.5 0 0 1 1146.5,167.5 L978.5,167.5 A2.5,2.5 0 0 1 976,165 L976,65 A2.5,2.5 0 0 1 978.5,62.5 " fill="none" style="stroke:#000000;stroke-width:1.5;"/><line style="stroke:#000000;stroke-width:1.5;" x1="976" x2="1039" y1="88.7719" y2="88.7719"/><text fill="#000000" font-family="Noto Sans CJK JP" font-size="14" font-weight="bold" lengthAdjust="spacing" textLength="50" x="980" y="80.7399">Render</text></g><!--cluster Google Cloud--><g id="cluster_Google Cloud"><path d="M626.5,191.5 L718.5,191.5 A3.75,3.75 0 0 1 721,194 L728,217.7719 L1763,217.7719 A2.5,2.5 0 0 1 1765.5,220.2719 L1765.5,384 A2.5,2.5 0 0 1 1763,386.5 L626.5,386.5 A2.5,2.5 0 0 1 624,384 L624,194 A2.5,2.5 0 0 1 626.5,191.5 " fill="none" style="stroke:#000000;stroke-width:1.5;"/><line style="stroke:#000000;stroke-width:1.5;" x1="624" x2="728" y1="217.7719" y2="217.7719"/><text fill="#000000" font-family="Noto Sans CJK JP" font-size="14" font-weight="bold" lengthAdjust="spacing" textLength="91" x="628" y="209.7399">Google Cloud</text></g><!--cluster Neon--><g id="cluster_Neon"><path d="M1591.5,410.5 L1628.5,410.5 A3.75,3.75 0 0 1 1631,413 L1638,436.7719 L1772.5,436.7719 A2.5,2.5 0 0 1 1775,439.2719 L1775,513 A2.5,2.5 0 0 1 1772.5,515.5 L1591.5,515.5 A2.5,2.5 0 0 1 1589,513 L1589,413 A2.5,2.5 0 0 1 1591.5,410.5 " fill="none" style="stroke:#000000;stroke-width:1.5;"/><line style="stroke:#000000;stroke-width:1.5;" x1="1589" x2="1638" y1="436.7719" y2="436.7719"/><text fill="#000000" font-family="Noto Sans CJK JP" font-size="14" font-weight="bold" lengthAdjust="spacing" textLength="36" x="1593" y="428.7399">Neon</text></g><!--cluster External APIs--><g id="cluster_External APIs"><path d="M590.5,459.5 L682.5,459.5 A3.75,3.75 0 0 1 685,462 L692,485.7719 L806.5,485.7719 A2.5,2.5 0 0 1 809,488.2719 L809,562 A2.5,2.5 0 0 1 806.5,564.5 L590.5,564.5 A2.5,2.5 0 0 1 588,562 L588,462 A2.5,2.5 0 0 1 590.5,459.5 " fill="none" style="stroke:#000000;stroke-width:1.5;"/><line style="stroke:#000000;stroke-width:1.5;" x1="588" x2="692" y1="485.7719" y2="485.7719"/><text fill="#000000" font-family="Noto Sans CJK JP" font-size="14" font-weight="bold" lengthAdjust="spacing" textLength="91" x="592" y="477.7399">External APIs</text></g><!--cluster GitHub--><g id="cluster_GitHub"><path d="M187.5,275.5 L237.5,275.5 A3.75,3.75 0 0 1 240,278 L247,301.7719 L436.5,301.7719 A2.5,2.5 0 0 1 439,304.2719 L439,463 A2.5,2.5 0 0 1 436.5,465.5 L187.5,465.5 A2.5,2.5 0 0 1 185,463 L185,278 A2.5,2.5 0 0 1 187.5,275.5 " fill="none" style="stroke:#000000;stroke-width:1.5;"/><line style="stroke:#000000;stroke-width:1.5;" x1="185" x2="247" y1="301.7719" y2="301.7719"/><text fill="#000000" font-family="Noto Sans CJK JP" font-size="14" font-weight="bold" lengthAdjust="spacing" textLength="49" x="189" y="293.7399">GitHub</text></g><!--entity Frontend--><g id="elem_Frontend"><rect fill="#F1F1F1" height="50.2719" rx="2.5" ry="2.5" style="stroke:#181818;stroke-width:0.5;" width="141" x="992" y="101.5"/><rect fill="#F1F1F1" height="10" style="stroke:#181818;stroke-width:0.5;" width="15" x="1113" y="106.5"/><rect fill="#F1F1F1" height="2" style="stroke:#181818;stroke-width:0.5;" width="4" x="1111" y="108.5"/><rect fill="#F1F1F1" height="2" style="stroke:#181818;stroke-width:0.5;" width="4" x="1111" y="112.5"/><text fill="#000000" font-family="Noto Sans CJK JP" font-size="14" lengthAdjust="spacing" textLength="101" x="1007" y="137.7399">React Frontend</text></g><!--entity CloudBuild--><g id="elem_CloudBuild"><rect fill="#F1F1F1" height="50.2719" rx="2.5" ry="2.5" style="stroke:#181818;stroke-width:0.5;" width="117" x="640" y="310.5"/><rect fill="#F1F1F1" height="10" style="stroke:#181818;stroke-width:0.5;" width="15" x="737" y="315.5"/><rect fill="#F1F1F1" height="2" style="stroke:#181818;stroke-width:0.5;" width="4" x="735" y="317.5"/><rect fill="#F1F1F1" height="2" style="stroke:#181818;stroke-width:0.5;" width="4" x="735" y="321.5"/><text fill="#000000" font-family="Noto Sans CJK JP" font-size="14" lengthAdjust="spacing" textLength="77" x="655" y="346.7399">Cloud Build</text></g><!--entity ArtifactRegistry--><g id="elem_ArtifactRegistry"><rect fill="#F1F1F1" height="50.2719" rx="2.5" ry="2.5" style="stroke:#181818;stroke-width:0.5;" width="144" x="990.5" y="320.5"/><rect fill="#F1F1F1" height="10" style="stroke:#181818;stroke-width:0.5;" width="15" x="1114.5" y="325.5"/><rect fill="#F1F1F1" height="2" style="stroke:#181818;stroke-width:0.5;" width="4" x="1112.5" y="327.5"/><rect fill="#F1F1F1" height="2" style="stroke:#181818;stroke-width:0.5;" width="4" x="1112.5" y="331.5"/><text fill="#000000" font-family="Noto Sans CJK JP" font-size="14" lengthAdjust="spacing" textLength="104" x="1005.5" y="356.7399">Artifact Registry</text></g><!--entity CloudRun--><g id="elem_CloudRun"><rect fill="#F1F1F1" height="50.2719" rx="2.5" ry="2.5" style="stroke:#181818;stroke-width:0.5;" width="210" x="1269" y="259.5"/><rect fill="#F1F1F1" height="10" style="stroke:#181818;stroke-width:0.5;" width="15" x="1459" y="264.5"/><rect fill="#F1F1F1" height="2" style="stroke:#181818;stroke-width:0.5;" width="4" x="1457" y="266.5"/><rect fill="#F1F1F1" height="2" style="stroke:#181818;stroke-width:0.5;" width="4" x="1457" y="270.5"/><text fill="#000000" font-family="Noto Sans CJK JP" font-size="14" lengthAdjust="spacing" textLength="170" x="1284" y="295.7399">Cloud Run (DRF Backend)</text></g><!--entity Logging--><g id="elem_Logging"><rect fill="#F1F1F1" height="50.2719" rx="2.5" ry="2.5" style="stroke:#181818;stroke-width:0.5;" width="135" x="1614.5" y="259.5"/><rect fill="#F1F1F1" height="10" style="stroke:#181818;stroke-width:0.5;" width="15" x="1729.5" y="264.5"/><rect fill="#F1F1F1" height="2" style="stroke:#181818;stroke-width:0.5;" width="4" x="1727.5" y="266.5"/><rect fill="#F1F1F1" height="2" style="stroke:#181818;stroke-width:0.5;" width="4" x="1727.5" y="270.5"/><text fill="#000000" font-family="Noto Sans CJK JP" font-size="14" lengthAdjust="spacing" textLength="95" x="1629.5" y="295.7399">Cloud Logging</text></g><!--entity NeonPostgreSQL--><g id="elem_NeonPostgreSQL"><rect fill="#F1F1F1" height="50.2719" rx="2.5" ry="2.5" style="stroke:#181818;stroke-width:0.5;" width="154" x="1605" y="449.5"/><rect fill="#F1F1F1" height="10" style="stroke:#181818;stroke-width:0.5;" width="15" x="1739" y="454.5"/><rect fill="#F1F1F1" height="2" style="stroke:#181818;stroke-width:0.5;" width="4" x="1737" y="456.5"/><rect fill="#F1F1F1" height="2" style="stroke:#181818;stroke-width:0.5;" width="4" x="1737" y="460.5"/><text fill="#000000" font-family="Noto Sans CJK JP" font-size="14" lengthAdjust="spacing" textLength="114" x="1620" y="485.7399">Neon PostgreSQL</text></g><!--entity OWIDAPI--><g id="elem_OWIDAPI"><rect fill="#F1F1F1" height="50.2719" rx="2.5" ry="2.5" style="stroke:#181818;stroke-width:0.5;" width="189" x="604" y="498.5"/><rect fill="#F1F1F1" height="10" style="stroke:#181818;stroke-width:0.5;" width="15" x="773" y="503.5"/><rect fill="#F1F1F1" height="2" style="stroke:#181818;stroke-width:0.5;" width="4" x="771" y="505.5"/><rect fill="#F1F1F1" height="2" style="stroke:#181818;stroke-width:0.5;" width="4" x="771" y="509.5"/><text fill="#000000" font-family="Noto Sans CJK JP" font-size="14" lengthAdjust="spacing" textLength="149" x="619" y="534.7399">OWID Climate Data API</text></g><!--entity GitHubRepo--><g id="elem_GitHubRepo"><rect fill="#F1F1F1" height="50.2719" rx="2.5" ry="2.5" style="stroke:#181818;stroke-width:0.5;" width="160" x="232" y="314.5"/><rect fill="#F1F1F1" height="10" style="stroke:#181818;stroke-width:0.5;" width="15" x="372" y="319.5"/><rect fill="#F1F1F1" height="2" style="stroke:#181818;stroke-width:0.5;" width="4" x="370" y="321.5"/><rect fill="#F1F1F1" height="2" style="stroke:#181818;stroke-width:0.5;" width="4" x="370" y="325.5"/><text fill="#000000" font-family="Noto Sans CJK JP" font-size="14" lengthAdjust="spacing" textLength="120" x="247" y="350.7399">GitHub Repository</text></g><!--entity GitHubActions--><g id="elem_GitHubActions"><rect fill="#F1F1F1" height="50.2719" rx="2.5" ry="2.5" style="stroke:#181818;stroke-width:0.5;" width="222" x="201" y="399.5"/><rect fill="#F1F1F1" height="10" style="stroke:#181818;stroke-width:0.5;" width="15" x="403" y="404.5"/><rect fill="#F1F1F1" height="2" style="stroke:#181818;stroke-width:0.5;" width="4" x="401" y="406.5"/><rect fill="#F1F1F1" height="2" style="stroke:#181818;stroke-width:0.5;" width="4" x="401" y="410.5"/><text fill="#000000" font-family="Noto Sans CJK JP" font-size="14" lengthAdjust="spacing" textLength="182" x="216" y="435.7399">GitHub Actions (&#23450;&#26399;&#12496;&#12483;&#12481;)</text></g><!--entity User--><g id="elem_User"><ellipse cx="698.5" cy="14" fill="#F1F1F1" rx="8" ry="8" style="stroke:#181818;stroke-width:0.5;"/><path d="M698.5,22 L698.5,49 M685.5,30 L711.5,30 M698.5,49 L685.5,64 M698.5,49 L711.5,64 " fill="none" style="stroke:#181818;stroke-width:0.5;"/><text fill="#000000" font-family="Noto Sans CJK JP" font-size="14" lengthAdjust="spacing" textLength="30" x="683.5" y="81.7399">User</text></g><!--entity Developer--><g id="elem_Developer"><ellipse cx="39.5" cy="308" fill="#F1F1F1" rx="8" ry="8" style="stroke:#181818;stroke-width:0.5;"/><path d="M39.5,316 L39.5,343 M26.5,324 L52.5,324 M39.5,343 L26.5,358 M39.5,343 L52.5,358 " fill="none" style="stroke:#181818;stroke-width:0.5;"/><text fill="#000000" font-family="Noto Sans CJK JP" font-size="14" lengthAdjust="spacing" textLength="67" x="6" y="375.7399">Developer</text></g><!--link Developer to GitHubRepo--><g id="link_Developer_GitHubRepo"><path d="M73.13,339.5 C112.19,339.5 172.96,339.5 225.84,339.5 " fill="none" id="Developer-to-GitHubRepo" style="stroke:#181818;stroke-width:1.0;"/><polygon fill="#181818" points="231.84,339.5,222.84,335.5,226.84,339.5,222.84,343.5,231.84,339.5" style="stroke:#181818;stroke-width:1.0;"/><text fill="#000000" font-family="Noto Sans CJK JP" font-size="13" lengthAdjust="spacing" textLength="64" x="104" y="335.58">Push Code</text></g><!--link GitHubRepo to CloudBuild--><g id="link_GitHubRepo_CloudBuild"><path d="M392.2,338.68 C465.96,337.91 568.1403,336.842 633.9703,336.162 " fill="none" id="GitHubRepo-to-CloudBuild" style="stroke:#181818;stroke-width:1.0;"/><polygon fill="#181818" points="639.97,336.1,630.9292,332.1932,634.9703,336.1516,631.0118,340.1927,639.97,336.1" style="stroke:#181818;stroke-width:1.0;"/><text fill="#000000" font-family="Noto Sans CJK JP" font-size="13" lengthAdjust="spacing" textLength="80" x="473.5" y="333.58">Trigger CI/CD</text></g><!--link CloudBuild to ArtifactRegistry--><g id="link_CloudBuild_ArtifactRegistry"><path d="M757.26,337.1 C820.54,338.84 916.0923,341.4846 984.2623,343.3646 " fill="none" id="CloudBuild-to-ArtifactRegistry" style="stroke:#181818;stroke-width:1.0;"/><polygon fill="#181818" points="990.26,343.53,981.3737,339.2834,985.2619,343.3922,981.1532,347.2804,990.26,343.53" style="stroke:#181818;stroke-width:1.0;"/><text fill="#000000" font-family="Noto Sans CJK JP" font-size="13" lengthAdjust="spacing" textLength="133" x="826" y="335.58">Push Container Image</text></g><!--link CloudBuild to CloudRun--><g id="link_CloudBuild_CloudRun"><path d="M757.08,323.15 C778.34,318.95 802.69,314.54 825,311.5 C975.23,291.01 1013.51,289.73 1165,283.5 C1197.86,282.15 1206.11,283.38 1239,283.5 C1248.65,283.54 1252.7001,283.5542 1262.7601,283.6142 " fill="none" id="CloudBuild-to-CloudRun" style="stroke:#181818;stroke-width:1.0;"/><polygon fill="#181818" points="1268.76,283.65,1259.784,279.5964,1263.7601,283.6202,1259.7363,287.5963,1268.76,283.65" style="stroke:#181818;stroke-width:1.0;"/><text fill="#000000" font-family="Noto Sans CJK JP" font-size="13" lengthAdjust="spacing" textLength="83" x="1021" y="280.58">Deploy Image</text></g><!--link ArtifactRegistry to CloudRun--><g id="link_ArtifactRegistry_CloudRun"><path d="M1134.51,331.51 C1174.3,323.66 1218.7933,314.8905 1262.9733,306.1805 " fill="none" id="ArtifactRegistry-to-CloudRun" style="stroke:#181818;stroke-width:1.0;"/><polygon fill="#181818" points="1268.86,305.02,1259.2563,302.8364,1263.9544,305.9871,1260.8037,310.6853,1268.86,305.02" style="stroke:#181818;stroke-width:1.0;"/><text fill="#000000" font-family="Noto Sans CJK JP" font-size="13" lengthAdjust="spacing" textLength="64" x="1170" y="307.58">Pull Image</text></g><!--link GitHubRepo to Frontend--><g id="link_GitHubRepo_Frontend"><path d="M357.39,314.37 C409.23,286.06 498.34,240.6 580,214.5 C722.67,168.91 891.1589,145.0619 986.0089,134.2119 " fill="none" id="GitHubRepo-to-Frontend" style="stroke:#181818;stroke-width:1.0;"/><polygon fill="#181818" points="991.97,133.53,982.5737,130.5788,987.0024,134.0982,983.4829,138.5269,991.97,133.53" style="stroke:#181818;stroke-width:1.0;"/><text fill="#000000" font-family="Noto Sans CJK JP" font-size="13" lengthAdjust="spacing" textLength="134" x="631.5" y="156.58">Deploy React (Render)</text></g><!--link GitHubActions to OWIDAPI--><g id="link_GitHubActions_OWIDAPI"><path d="M383.69,449.57 C406.31,457.14 431.57,465.13 455,471.5 C503.72,484.74 552.7987,495.5723 598.0587,504.7123 " fill="none" id="GitHubActions-to-OWIDAPI" style="stroke:#181818;stroke-width:1.0;"/><polygon fill="#181818" points="603.94,505.9,595.9099,500.1976,599.0389,504.9103,594.3263,508.0393,603.94,505.9" style="stroke:#181818;stroke-width:1.0;"/><text fill="#000000" font-family="Noto Sans CJK JP" font-size="13" lengthAdjust="spacing" textLength="115" x="456" y="467.58">Fetch Climate Data</text></g><!--link GitHubActions to NeonPostgreSQL--><g id="link_GitHubActions_NeonPostgreSQL"><path d="M423.22,424.94 C500.09,425.21 605.05,425.5 697.5,425.5 C697.5,425.5 697.5,425.5 1375,425.5 C1454.09,425.5 1537.3944,440.3516 1598.9744,454.1116 " fill="none" id="GitHubActions-to-NeonPostgreSQL" style="stroke:#181818;stroke-width:1.0;"/><polygon fill="#181818" points="1604.83,455.42,1596.9189,449.5536,1599.9503,454.3296,1595.1743,457.3611,1604.83,455.42" style="stroke:#181818;stroke-width:1.0;"/><text fill="#000000" font-family="Noto Sans CJK JP" font-size="13" lengthAdjust="spacing" textLength="60" x="1032.5" y="421.58">Save Data</text></g><!--link User to Frontend--><g id="link_User_Frontend"><path d="M713.69,48.68 C759.25,58.87 898.0748,89.9297 985.8348,109.5697 " fill="none" id="User-to-Frontend" style="stroke:#181818;stroke-width:1.0;"/><polygon fill="#181818" points="991.69,110.88,983.7808,105.011,986.8107,109.788,982.0337,112.8179,991.69,110.88" style="stroke:#181818;stroke-width:1.0;"/><text fill="#000000" font-family="Noto Sans CJK JP" font-size="13" lengthAdjust="spacing" textLength="85" x="850" y="70.58">HTTP Request</text></g><!--link Frontend to CloudRun--><g id="link_Frontend_CloudRun"><path d="M1112.54,151.54 C1170.41,181.08 1260.7062,227.1718 1318.5862,256.7218 " fill="none" id="Frontend-to-CloudRun" style="stroke:#181818;stroke-width:1.0;"/><polygon fill="#181818" points="1323.93,259.45,1317.7331,251.7951,1319.4768,257.1765,1314.0954,258.9202,1323.93,259.45" style="stroke:#181818;stroke-width:1.0;"/><text fill="#000000" font-family="Noto Sans CJK JP" font-size="13" lengthAdjust="spacing" textLength="72" x="1166" y="178.58">API Request</text></g><!--link CloudRun to NeonPostgreSQL--><g id="link_CloudRun_NeonPostgreSQL"><path d="M1420.44,309.51 C1460.98,332.15 1521.68,366.85 1573,399.5 C1598.04,415.43 1620.6141,431.0374 1641.5741,445.9774 " fill="none" id="CloudRun-to-NeonPostgreSQL" style="stroke:#181818;stroke-width:1.0;"/><polygon fill="#181818" points="1646.46,449.46,1641.4529,440.9789,1642.3884,446.5579,1636.8095,447.4934,1646.46,449.46" style="stroke:#181818;stroke-width:1.0;"/><text fill="#000000" font-family="Noto Sans CJK JP" font-size="13" lengthAdjust="spacing" textLength="62" x="1510" y="359.58">DB Access</text></g><!--link CloudRun to Logging--><g id="link_CloudRun_Logging"><path d="M1479.02,284.5 C1523.73,284.5 1568.66,284.5 1608.2,284.5 " fill="none" id="CloudRun-to-Logging" style="stroke:#181818;stroke-width:1.0;stroke-dasharray:7.0,7.0;"/><polygon fill="#181818" points="1614.2,284.5,1605.2,280.5,1609.2,284.5,1605.2,288.5,1614.2,284.5" style="stroke:#181818;stroke-width:1.0;"/><text fill="#000000" font-family="Noto Sans CJK JP" font-size="13" lengthAdjust="spacing" textLength="62" x="1510" y="280.58">Send Logs</text></g><!--SRC=[RLDDRzD04BtlhnZbGd9ekNEebCI4fbJ1946S5sVZh6hlcjrrHOKuD3v0rHuuKHKXLI1EIFG7eFuRgtoS-XUOzKSSExdjl7tpvktCh3xY8gAAXZ1ZSne7PY256T6GGMiaZOG95Hhw1q_Xm6sHWCqD8AYulp0muufvXaj12FMCLF12CrKS7NRC0XbXJ2Bg7L4VzSPCp9XgmLi2uCamae89Os5CWO72kaXe0TMhWBnRItyYfHymw0Sodcs8P2ZqOXxa2bcSXNLULna-j_N6pEVQg9ECNQ8bk4rx70jeE-C1zD0GUkjKTV1gMyQXz7qk_8nNd6iF6Z4fDXvYGN2bDhvYa-U7MRB5AgYcyVYDOKhG0BhkK6-8FNivTD0Y3wbXu513BIsJj3TuhZUOc_turOP83cF38gavpZPlMOvQS2kxcos6XlRTpUVVNwxJv6EQ96bosbbBBZZMmmFuz-dypzMlzFGyNPwboViqkKoJd-doErbj4kpixAsLXKVWnde1VJbZP0ssh6hwo9hYjlgOtXy-x3jaxSeocvElL8MXN63QCCJcDDFAiIFTOL4WJmhQXbo3xCP1K52RdikThoJpZz7Elqt7DgdHpFlR3_Lstz-UaLflC-LYrYWyOCPRr1PY2xs-RPWreSS56Isaos_PR7xStLp__Nf1x9zl-j-VJbrq_pfcsf0LtcY5TLHoLl3M-auFt-SnhIlUxkvU-QMiGIkFeIR_0G00]--></g></svg>